<svg width="38" height="24" viewBox="0 0 38 24" fill="none" xmlns="http://www.w3.org/2000/svg">
<g clip-path="url(#clip0_7261_786)">
<path opacity="0.07" d="M35 0H3C1.3 0 0 1.3 0 3V21C0 22.7 1.4 24 3 24H35C36.7 24 38 22.7 38 21V3C38 1.3 36.6 0 35 0Z" fill="black"/>
<path d="M35 1C36.1 1 37 1.9 37 3V21C37 22.1 36.1 23 35 23H3C1.9 23 1 22.1 1 21V3C1 1.9 1.9 1 3 1H35Z" fill="white"/>
<path fill-rule="evenodd" clip-rule="evenodd" d="M10.6814 7.3471C10.3741 7.73086 9.88248 8.03354 9.39082 7.9903C9.32937 7.47142 9.57007 6.9201 9.85175 6.57959C10.159 6.18502 10.6968 5.90396 11.1321 5.88234C11.1833 6.42284 10.9836 6.95253 10.6814 7.3471ZM11.1269 8.09297C10.6938 8.06666 10.2986 8.23044 9.97934 8.36273C9.77391 8.44787 9.59995 8.51996 9.4676 8.51996C9.31908 8.51996 9.13793 8.44401 8.93455 8.35874C8.66805 8.24701 8.36337 8.11926 8.04386 8.1254C7.3115 8.13621 6.63036 8.57401 6.2565 9.27126C5.48829 10.6658 6.05676 12.7305 6.79936 13.8655C7.16298 14.4276 7.5983 15.0438 8.17189 15.0222C8.42424 15.0122 8.60576 14.9309 8.79362 14.8467C9.0099 14.7499 9.23458 14.6493 9.58539 14.6493C9.92404 14.6493 10.1389 14.7473 10.3451 14.8413C10.5412 14.9308 10.7296 15.0167 11.0091 15.0114C11.6032 15.0006 11.9771 14.4493 12.3407 13.8871C12.7331 13.2838 12.9055 12.695 12.9317 12.6057L12.9348 12.5953C12.9341 12.5947 12.9293 12.5923 12.9207 12.5882C12.7896 12.5248 11.787 12.0404 11.7773 10.7414C11.7677 9.65111 12.5726 9.09869 12.6993 9.01173C12.707 9.00644 12.7122 9.00287 12.7145 9.00101C12.2024 8.20107 11.4035 8.11459 11.1269 8.09297ZM15.2394 14.9519V6.52552H18.2354C19.7821 6.52552 20.8627 7.64976 20.8627 9.29289C20.8627 10.936 19.7616 12.0711 18.1945 12.0711H16.4788V14.9519H15.2394ZM16.4787 7.6282H17.9075C18.983 7.6282 19.5976 8.23356 19.5976 9.29835C19.5976 10.3631 18.983 10.9739 17.9024 10.9739H16.4787V7.6282ZM24.9547 13.9412C24.627 14.6006 23.9049 15.0168 23.1264 15.0168C21.9741 15.0168 21.17 14.2925 21.17 13.2007C21.17 12.1197 21.9485 11.4981 23.3876 11.4062L24.9342 11.3089V10.8441C24.9342 10.1577 24.5092 9.78473 23.7512 9.78473C23.1264 9.78473 22.6706 10.1252 22.5784 10.6441H21.462C21.4978 9.55231 22.4709 8.75777 23.7871 8.75777C25.2057 8.75777 26.1275 9.5415 26.1275 10.7576V14.9519H24.9803V13.9412H24.9547ZM23.4592 14.0169C22.7986 14.0169 22.3786 13.6818 22.3786 13.1683C22.3786 12.6386 22.7832 12.3306 23.5565 12.2819L24.9342 12.19V12.6657C24.9342 13.4548 24.2991 14.0169 23.4592 14.0169ZM29.9327 15.2817C29.4359 16.7572 28.8674 17.2437 27.6588 17.2437C27.5666 17.2437 27.2593 17.2329 27.1876 17.2113V16.2005C27.2644 16.2113 27.4539 16.2221 27.5512 16.2221C28.0992 16.2221 28.4065 15.9789 28.596 15.3465L28.7087 14.9736L26.6089 8.83888H27.9046L29.3642 13.8169H29.3898L30.8494 8.83888H32.1093L29.9327 15.2817Z" fill="black"/>
</g>
<defs>
<clipPath id="clip0_7261_786">
<rect width="38" height="24" fill="white"/>
</clipPath>
</defs>
</svg>
