<svg width="138" height="37" viewBox="0 0 138 37" fill="none" xmlns="http://www.w3.org/2000/svg">
<path d="M8.01336 15.7992C8.63719 14.9774 9.77688 14.9654 10.2448 14.9654H14.9775V9.65686H10.2448C8.20831 9.65686 6.16286 10.3497 4.38735 11.9152C2 14.0207 2 17.9256 2 17.9256V19.0833C2 19.0833 2 22.9882 4.38735 25.0937C6.16286 26.6592 8.20831 27.352 10.2448 27.352H14.9775V22.0435C14.9775 22.0435 10.5687 22.0645 10.2448 22.0435C9.92084 22.0225 8.63419 22.0315 8.01336 21.2097C7.38953 20.3879 7.28756 19.7101 7.28756 19.0833V17.9256C7.28756 17.2988 7.39253 16.621 8.01336 15.7992Z" fill="#2D3458"/>
<path d="M76.4548 15.7992C77.0786 14.9774 78.2183 14.9654 78.6862 14.9654H83.4189V9.65686H78.6862C76.6497 9.65686 74.6043 10.3497 72.8288 11.9152C70.4384 14.0207 70.4414 17.9256 70.4414 17.9256V19.0833C70.4414 19.0833 70.4414 22.9882 72.8288 25.0937C74.6043 26.6592 76.6497 27.352 78.6862 27.352H83.4189V22.0435C83.4189 22.0435 79.0101 22.0645 78.6862 22.0435C78.3622 22.0225 77.0756 22.0315 76.4548 21.2097C75.8309 20.3879 75.729 19.7101 75.729 19.0833V17.9256C75.729 17.2988 75.8339 16.621 76.4548 15.7992Z" fill="#2D3458"/>
<path d="M35.0331 18.4925C35.0241 13.6128 31.0681 9.65991 26.1855 9.65991C21.3028 9.65991 17.3379 13.6218 17.3379 18.5075C17.3379 18.7024 17.3469 18.8944 17.3589 19.0833C17.3589 19.0833 17.3499 18.9274 17.3559 19.0833C17.3619 19.2393 17.3889 22.9883 19.7792 25.0937C21.5547 26.6593 23.6002 27.3521 25.6366 27.3521H28.021V22.0435C28.021 22.0435 25.8616 22.0555 25.6396 22.0435C25.4177 22.0315 24.0291 22.0315 23.4082 21.2098C22.7844 20.388 22.6494 19.7102 22.6494 19.0833V18.4925C22.6584 16.543 24.239 14.9685 26.1885 14.9685C28.1379 14.9685 29.7185 16.546 29.7275 18.4925V27.3521H35.0361V18.4925H35.0331Z" fill="#2D3458"/>
<path d="M94.6269 9.65686C89.7412 9.65686 85.7793 13.6188 85.7793 18.5044C85.7793 23.3901 89.7412 27.352 94.6269 27.352C99.5126 27.352 103.474 23.3901 103.474 18.5044C103.474 13.6188 99.5126 9.65686 94.6269 9.65686ZM94.6269 22.0435C92.6714 22.0435 91.0879 20.4599 91.0879 18.5044C91.0879 16.549 92.6714 14.9654 94.6269 14.9654C96.5824 14.9654 98.1659 16.549 98.1659 18.5044C98.1659 20.4599 96.5824 22.0435 94.6269 22.0435Z" fill="#2D3458"/>
<path d="M46.6651 9.64795C44.6286 9.64795 42.5892 10.3468 40.8077 11.9063C38.2494 14.1467 38.3963 17.9167 38.3963 17.9167V27.3551H43.7049V17.9167C43.7049 17.2899 43.8099 16.612 44.4307 15.7903C45.0545 14.9685 46.6621 14.9565 46.6621 14.9565H49.0224V9.64795H46.6621H46.6651Z" fill="#2D3458"/>
<path d="M114.106 9.64795C112.07 9.64795 110.03 10.3468 108.249 11.9063C105.691 14.1467 105.837 17.9167 105.837 17.9167V27.3551H111.146V17.9167C111.146 17.2899 111.251 16.612 111.872 15.7903C112.496 14.9685 114.103 14.9565 114.103 14.9565H116.464V9.64795H114.103H114.106Z" fill="#2D3458"/>
<path d="M135.525 18.4925C135.525 13.6068 131.563 9.6449 126.678 9.6449C121.792 9.6449 117.83 13.6068 117.83 18.4925V34.997H123.139V18.4925C123.139 16.537 124.722 14.9534 126.678 14.9534C128.633 14.9534 130.217 16.537 130.217 18.4925H130.22V19.0713C130.22 19.6952 130.115 20.376 129.494 21.1977C128.87 22.0195 127.262 22.0315 127.262 22.0315H124.902V27.3401H127.262C129.299 27.3401 131.344 26.6473 133.12 25.0817C135.51 22.9763 135.507 19.0713 135.507 19.0713H135.504C135.516 18.8794 135.525 18.6874 135.525 18.4925Z" fill="#2D3458"/>
<path d="M50.3828 18.5045C50.3828 23.3902 54.3447 27.3521 59.2304 27.3521C64.1161 27.3521 68.078 23.3902 68.078 18.5045V2H62.7694V18.5045C62.7694 20.46 61.1859 22.0435 59.2304 22.0435C57.2749 22.0435 55.6914 20.46 55.6914 18.5045H55.6884V17.9257C55.6884 17.3018 55.7933 16.621 56.4142 15.7992C57.038 14.9775 58.6456 14.9655 58.6456 14.9655H61.0059V9.65691H58.6456C56.6091 9.65691 54.5637 10.3497 52.7882 11.9153C50.3978 14.0207 50.4008 17.9257 50.4008 17.9257H50.4038C50.3918 18.1176 50.3828 18.3096 50.3828 18.5045Z" fill="#2D3458"/>
</svg>
