<svg width="38" height="24" viewBox="0 0 38 24" fill="none" xmlns="http://www.w3.org/2000/svg">
<g clip-path="url(#clip0_7261_790)">
<path opacity="0.07" d="M35 0H3C1.3 0 0 1.3 0 3V21C0 22.7 1.4 24 3 24H35C36.7 24 38 22.7 38 21V3C38 1.3 36.6 0 35 0Z" fill="black"/>
<path d="M35 1C36.1 1 37 1.9 37 3V21C37 22.1 36.1 23 35 23H3C1.9 23 1 22.1 1 21V3C1 1.9 1.9 1 3 1H35Z" fill="white"/>
<path fill-rule="evenodd" clip-rule="evenodd" d="M17.915 14.7694V11.4352H19.6592C20.3739 11.4352 20.9772 11.1989 21.469 10.7329L21.587 10.6148C22.4853 9.64994 22.4263 8.14694 21.469 7.25432C20.9903 6.78176 20.3346 6.52579 19.6592 6.53892H16.8593V14.7694H17.915ZM17.9152 10.4243V7.5496H19.6859C20.0662 7.5496 20.4269 7.69399 20.6958 7.95653C21.2664 8.50785 21.2795 9.42672 20.7286 9.99773C20.4597 10.28 20.0793 10.4375 19.6859 10.4243H17.9152Z" fill="#3C4043"/>
<path fill-rule="evenodd" clip-rule="evenodd" d="M26.5114 9.5777C26.0589 9.16421 25.4426 8.95418 24.6623 8.95418C23.659 8.95418 22.905 9.32173 22.4066 10.0503L23.3377 10.6344C23.6787 10.1356 24.1443 9.88617 24.7344 9.88617C25.1082 9.88617 25.4688 10.024 25.7507 10.2734C26.0261 10.5097 26.1835 10.851 26.1835 11.212V11.4548C25.777 11.2317 25.2655 11.1135 24.636 11.1135C23.9017 11.1135 23.3115 11.2842 22.8722 11.632C22.4329 11.9799 22.2099 12.4393 22.2099 13.0235C22.1968 13.5551 22.4263 14.0605 22.8329 14.4018C23.2459 14.7693 23.7705 14.9531 24.3869 14.9531C25.1147 14.9531 25.6917 14.6315 26.1311 13.9883H26.177V14.7693H27.1867V11.2973C27.1867 10.5688 26.9638 9.99119 26.5114 9.5777ZM23.6461 13.7323C23.4297 13.5748 23.2985 13.3188 23.2985 13.0432C23.2985 12.7347 23.4428 12.4787 23.7248 12.2753C24.0134 12.0718 24.3741 11.9668 24.8003 11.9668C25.3906 11.9602 25.8496 12.0915 26.1775 12.354C26.1775 12.8003 26.0005 13.1876 25.6529 13.5157C25.3381 13.8308 24.9118 14.008 24.4659 14.008C24.1708 14.0145 23.8822 13.9161 23.6461 13.7323Z" fill="#3C4043"/>
<path d="M29.4555 17.2437L32.9832 9.13794H31.8357L30.203 13.181H30.1833L28.5113 9.13794H27.3638L29.6784 14.4083L28.367 17.2437H29.4555Z" fill="#3C4043"/>
<path d="M14.2704 10.7132C14.2704 10.3916 14.2442 10.07 14.1917 9.75499H9.7395V11.573H12.2902C12.1853 12.1572 11.8443 12.6822 11.346 13.0104V14.1918H12.8672C13.759 13.3714 14.2704 12.1572 14.2704 10.7132Z" fill="#4285F4"/>
<path d="M9.73968 15.3339C11.0117 15.3339 12.0869 14.9138 12.8672 14.1918L11.346 13.0104C10.9198 13.2992 10.3757 13.4633 9.73968 13.4633C8.50695 13.4633 7.46438 12.6298 7.09063 11.514H5.52349V12.7348C6.32345 14.3297 7.95616 15.3339 9.73968 15.3339Z" fill="#34A853"/>
<path d="M7.09063 11.514C6.89388 10.9299 6.89407 10.2932 7.09081 9.70249V8.48827H5.52343C4.84794 9.82064 4.84794 11.3958 5.52343 12.7282L7.09063 11.514Z" fill="#FBBC04"/>
<path d="M9.73968 7.75318C10.4151 7.74005 11.0642 7.99603 11.5494 8.46202L12.9002 7.10997C12.0412 6.30924 10.9134 5.8695 9.73968 5.88263C7.95616 5.88263 6.32339 6.89338 5.52343 8.48827L7.09063 9.70906C7.46438 8.58673 8.50695 7.75318 9.73968 7.75318Z" fill="#EA4335"/>
</g>
<defs>
<clipPath id="clip0_7261_790">
<rect width="38" height="24" fill="white"/>
</clipPath>
</defs>
</svg>
