<svg width="38" height="24" viewBox="0 0 38 24" fill="none" xmlns="http://www.w3.org/2000/svg">
<g clip-path="url(#clip0_7261_833)">
<path opacity="0.07" d="M35 0H3C1.3 0 0 1.3 0 3V21C0 22.7 1.4 24 3 24H35C36.7 24 38 22.7 38 21V3C38 1.3 36.6 0 35 0Z" fill="black"/>
<path d="M35 1C36.1 1 37 1.9 37 3V21C37 22.1 36.1 23 35 23H3C1.9 23 1 22.1 1 21V3C1 1.9 1.9 1 3 1H35Z" fill="white"/>
<path d="M22.1548 7.19029H16.7194V16.8097H22.1548V7.19029Z" fill="#7275CF"/>
<path d="M17.0646 12C17.0637 11.0736 17.2769 10.1591 17.6879 9.32581C18.099 8.49253 18.6971 7.76226 19.4371 7.1903C18.5208 6.48093 17.4202 6.03978 16.2613 5.91728C15.1024 5.79478 13.9319 5.99586 12.8835 6.49755C11.8351 6.99924 10.9513 7.7813 10.3329 8.75432C9.71449 9.72735 9.38656 10.8521 9.38656 12C9.38656 13.1479 9.71449 14.2726 10.3329 15.2456C10.9513 16.2187 11.8351 17.0007 12.8835 17.5024C13.9319 18.0041 15.1024 18.2052 16.2613 18.0827C17.4202 17.9602 18.5208 17.519 19.4371 16.8097C18.6971 16.2377 18.099 15.5074 17.6879 14.6742C17.2769 13.8409 17.0637 12.9264 17.0646 12Z" fill="#EB001B"/>
<path d="M29.4874 12C29.4874 13.1479 29.1595 14.2726 28.5412 15.2456C27.9228 16.2187 27.039 17.0007 25.9907 17.5024C24.9423 18.0041 23.7718 18.2052 22.6129 18.0827C21.454 17.9602 20.3535 17.519 19.4371 16.8097C20.1765 16.2371 20.7742 15.5067 21.1851 14.6736C21.5961 13.8404 21.8097 12.9263 21.8097 12C21.8097 11.0737 21.5961 10.1595 21.1851 9.32638C20.7742 8.49322 20.1765 7.76284 19.4371 7.1903C20.3535 6.48093 21.454 6.03978 22.6129 5.91728C23.7718 5.79478 24.9423 5.99587 25.9907 6.49756C27.039 6.99926 27.9228 7.78132 28.5412 8.75434C29.1595 9.72737 29.4874 10.8521 29.4874 12Z" fill="#01A2E5"/>
</g>
<defs>
<clipPath id="clip0_7261_833">
<rect width="38" height="24" fill="white"/>
</clipPath>
</defs>
</svg>
