<svg width="38" height="24" viewBox="0 0 38 24" fill="none" xmlns="http://www.w3.org/2000/svg">
<g clip-path="url(#clip0_7261_809)">
<path opacity="0.07" d="M35 0H3C1.3 0 0 1.3 0 3V21C0 22.7 1.4 24 3 24H35C36.7 24 38 22.7 38 21V3C38 1.3 36.6 0 35 0Z" fill="black"/>
<path d="M35 1C36.1 1 37 1.9 37 3V21C37 22.1 36.1 23 35 23H3C1.9 23 1 22.1 1 21V3C1 1.9 1.9 1 3 1H35Z" fill="white"/>
<path fill-rule="evenodd" clip-rule="evenodd" d="M12.3828 16.3765H10.0919L8.37399 9.48071C8.29245 9.16351 8.11931 8.88308 7.86464 8.75091C7.22908 8.41877 6.52873 8.15443 5.76471 8.02111V7.75563H9.45523C9.96457 7.75563 10.3466 8.15443 10.4102 8.61759L11.3016 13.5917L13.5914 7.75563H15.8187L12.3828 16.3765ZM17.0913 16.3765H14.9277L16.7093 7.75563H18.8729L17.0913 16.3765ZM21.6737 10.1426C21.7373 9.67828 22.1193 9.4128 22.565 9.4128C23.2654 9.34614 24.0283 9.47946 24.6649 9.81045L25.0469 7.95435C24.4103 7.68886 23.7099 7.55554 23.0743 7.55554C20.9744 7.55554 19.4464 8.74966 19.4464 10.4069C19.4464 11.6677 20.5287 12.3297 21.2928 12.7285C22.1193 13.1262 22.4377 13.3916 22.374 13.7893C22.374 14.3858 21.7373 14.6513 21.1018 14.6513C20.3377 14.6513 19.5737 14.4524 18.8745 14.1203L18.4925 15.9775C19.2565 16.3085 20.0831 16.4419 20.8471 16.4419C23.2017 16.5074 24.6649 15.3144 24.6649 13.5238C24.6649 11.2689 21.6737 11.1367 21.6737 10.1426ZM32.2349 16.3765L30.5169 7.75563H28.6717C28.2897 7.75563 27.9077 8.02111 27.7803 8.41877L24.5992 16.3765H26.8264L27.271 15.1168H30.0076L30.2623 16.3765H32.2349ZM28.9911 10.0764L29.6267 13.3254H27.8451L28.9911 10.0764Z" fill="#172B85"/>
</g>
<defs>
<clipPath id="clip0_7261_809">
<rect width="38" height="24" fill="white"/>
</clipPath>
</defs>
</svg>
