<svg id="f5bafde0-4c4f-4800-992e-fc9e3b283041" data-name="whites" xmlns="http://www.w3.org/2000/svg" viewBox="0 0 827.4 203.5"><defs><style>.b15e9f4d-a1fe-4e8f-af07-74d5c3b263e2{fill:#010326;}.e974b649-f0ce-47fe-9d76-fc94c89bf7f9{fill:#36f;}</style></defs><title>zing-gg-dark</title><path id="a5905e0a-22d6-4c9f-a950-be4e1f6aacc5" data-name="zinggg" class="b15e9f4d-a1fe-4e8f-af07-74d5c3b263e2" d="M29.8,37.8V73.3H73.2L25.2,144v13.9H132.7V119.5h-48l45.8-66.6V37.8ZM150.7,157.9V37.7h45.1V157.8l-45.1.1Zm192.5,0V91.3c0-42.8-21.7-56.1-47.1-56.4-12.7-.2-27.8,4.1-38,16l-2-13.1H216.3V157.9h44.4V94.7c0-15.8,10-23.1,20.7-23.1,8.3,0,16.8,5.1,16.8,19.9v66.4Zm17.2,8.5c-2.4,36.7,21.7,59.1,64.9,59.1,34.4,0,68.3-14.6,68.3-53.5,0-6.6-1.5-23.6-23.7-36.2,13.9-10,21.7-24.8,21.9-39.9a44.58,44.58,0,0,0-11.5-32.3L496,45.1,463.6,22c-3.9,5.1-8.8,11.2-12.9,16.5a73.18,73.18,0,0,0-24.9-4.6c-37.3,0-67.1,23.8-67.1,61.5,0,37.2,26.6,60.5,67.1,60.5,16.3,0,21.7,7.3,21.7,16,0,11.7-10.5,17.3-22.2,17.3-11.9,0-23.2-4.1-22.7-22.8Zm65.4-95.8c13.2,0,22.7,11.2,22.7,24.8,0,16-10.7,23.6-22.7,23.6-13.2,0-23.4-9.2-23.4-23.6C402.4,79.3,412.6,70.6,425.8,70.6Zm141.1,95.8c-2.4,36.7,21.7,59.1,64.9,59.1,34.4,0,68.3-14.6,68.3-53.5,0-6.6-1.5-23.6-23.7-36.2,13.9-10,21.7-24.8,21.9-39.9a44.58,44.58,0,0,0-11.5-32.3l15.6-18.5L670.1,22c-3.9,5.1-8.8,11.2-12.9,16.5a73.18,73.18,0,0,0-24.9-4.6c-37.3,0-67.1,23.8-67.1,61.5,0,37.2,26.6,60.5,67.1,60.5,16.3,0,21.7,7.3,21.7,16,0,11.7-10.5,17.3-22.2,17.3-12,0-23.2-4.1-22.7-22.8Zm65.4-95.8c13.2,0,22.7,11.2,22.7,24.8,0,16-10.7,23.6-22.7,23.6-13.2,0-23.4-9.2-23.4-23.6C608.8,79.3,619.1,70.6,632.3,70.6Zm84.8,95.8c-2.4,36.7,21.7,59.1,64.9,59.1,34.4,0,68.3-14.6,68.3-53.5,0-6.6-1.5-23.6-23.7-36.2,13.9-10,21.7-24.8,21.9-39.9A44.58,44.58,0,0,0,837,63.6l15.6-18.5L820.3,22c-3.9,5.1-8.8,11.2-12.9,16.5a73.18,73.18,0,0,0-24.9-4.6c-37.3,0-67.1,23.8-67.1,61.5,0,37.2,26.6,60.5,67.1,60.5,16.3,0,21.7,7.3,21.7,16,0,11.7-10.5,17.3-22.2,17.3-12,0-23.2-4.1-22.7-22.8Zm65.4-95.8c13.2,0,22.7,11.2,22.7,24.8,0,16-10.7,23.6-22.7,23.6-13.2,0-23.4-9.2-23.4-23.6C759.1,79.3,769.3,70.6,782.5,70.6Z" transform="translate(-25.2 -22)"/><path id="e6e73456-929b-4166-a12b-91014385d964" data-name="dot" class="e974b649-f0ce-47fe-9d76-fc94c89bf7f9" d="M527.4,118c30.1,0,30.3-47,0-47C497.3,71,497.8,118,527.4,118Z" transform="translate(-25.2 -22)"/></svg>